HIERARCHY
ROOT Hips
{
  OFFSET -31.5692 30.0904 122.763
  CHANNELS 6 Xposition Yposition Zposition Zrotation Xrotation Yrotation
  JOINT LeftUpLeg
  {
    OFFSET 8.64259 1.95398 -2.38835
    CHANNELS 3 Zrotation Xrotation Yrotation
    JOINT LeftLeg
    {
      OFFSET 43.7702 0 0
      CHANNELS 3 Zrotation Xrotation Yrotation
      JOINT LeftFoot
      {
        OFFSET 40.6238 0 0
        CHANNELS 3 Zrotation Xrotation Yrotation
        JOINT LeftToeBase
        {
          OFFSET 12.7242 0 0
          CHANNELS 3 Zrotation Xrotation Yrotation
          End Site
          {
            OFFSET 0 0 0
          }
        }
      }
    }
  }
  JOINT RightUpLeg
  {
    OFFSET -8.2249 1.95398 -2.59336
    CHANNELS 3 Zrotation Xrotation Yrotation
    JOINT RightLeg
    {
      OFFSET 43.5653 0 0
      CHANNELS 3 Zrotation Xrotation Yrotation
      JOINT RightFoot
      {
        OFFSET 40.6238 0 0
        CHANNELS 3 Zrotation Xrotation Yrotation
        JOINT RightToeBase
        {
          OFFSET 12.7242 0 0
          CHANNELS 3 Zrotation Xrotation Yrotation
          End Site
          {
            OFFSET 0 0 0
          }
        }
      }
    }
  }
  JOINT Spine
  {
    OFFSET 0.165834 0.87714 6.61349
    CHANNELS 3 Zrotation Xrotation Yrotation
    JOINT Spine1
    {
      OFFSET 7.38963 1.71661e-005 0
      CHANNELS 3 Zrotation Xrotation Yrotation
      JOINT Spine2
      {
        OFFSET 11.9445 1.14441e-005 0
        CHANNELS 3 Zrotation Xrotation Yrotation
        JOINT Spine3
        {
          OFFSET 14.7254 4.19617e-005 0
          CHANNELS 3 Zrotation Xrotation Yrotation
          JOINT Spine4
          {
            OFFSET 10.9679 0 0
            CHANNELS 3 Zrotation Xrotation Yrotation
            JOINT RightShoulder
            {
              OFFSET 2.46616 -1.6653 3.69651
              CHANNELS 3 Zrotation Xrotation Yrotation
              JOINT RightArm
              {
                OFFSET 13.0012 0 0
                CHANNELS 3 Zrotation Xrotation Yrotation
                JOINT RightForeArm
                {
                  OFFSET 28.7848 1.62311e-005 0
                  CHANNELS 3 Zrotation Xrotation Yrotation
                  JOINT RightHand
                  {
                    OFFSET 26.5688 1.62095e-005 0
                    CHANNELS 3 Zrotation Xrotation Yrotation
                    End Site
                    {
                      OFFSET 0 0 0
                    }
                  }
                }
              }
            }
            JOINT LeftShoulder
            {
              OFFSET 2.38034 -1.29275 -3.7523
              CHANNELS 3 Zrotation Xrotation Yrotation
              JOINT LeftArm
              {
                OFFSET 16.3182 6.07031e-005 0
                CHANNELS 3 Zrotation Xrotation Yrotation
                JOINT LeftForeArm
                {
                  OFFSET 27.0901 0 0
                  CHANNELS 3 Zrotation Xrotation Yrotation
                  JOINT LeftHand
                  {
                    OFFSET 24.5451 1.51738e-005 0
                    CHANNELS 3 Zrotation Xrotation Yrotation
                    End Site
                    {
                      OFFSET 0 0 0
                    }
                  }
                }
              }
            }
            JOINT Neck
            {
              OFFSET 5.0226 -0.0266342 0
              CHANNELS 3 Zrotation Xrotation Yrotation
              JOINT Head
              {
                OFFSET 6.69364 2.86102e-005 0
                CHANNELS 3 Zrotation Xrotation Yrotation
                End Site
                {
                  OFFSET 0 0 0
                }
              }
            }
          }
        }
      }
    }
  }
}
MOTION
Frames:	9
Frame Time:	0.0416667
-30.0845 100.112 66.3076 100.492 32.1062 84.4911 -172.75 3.95926 88.7947 -24.6189 7.51131 -1.24674 71.4229 6.4944 1.39136 17.7995 -8.10693 5.81064 176.376 7.23449 90.6411 -24.059 -17.7218 -2.96096 64.663 -3.34217 -0.450141 26.3313 0.741138 1.77756 -0.745145 7.65534 -90.271 11.5613 -1.60915 -0.374148 -0.108636 -1.62407 -0.302947 -22.65 -1.42229 -0.840545 -2.63733 -1.42232 -0.840553 93.9888 -29.2084 -98.9825 43.0422 -0.77597 12.3343 5.75275 -17.9242 -10.9419 -20.3044 0.497672 -11.9246 -83.6264 -45.3664 87.7961 -31.1508 -11.9756 -23.0917 7.65395 18.7955 -9.37522 19.9733 -6.39359 -33.9692 -27.4511 1.45257 -1.57958 -9.66173 1.04295 5.66957 
-27.9241 100.536 65.5295 98.9096 33.8179 85.561 -173.01 3.11064 89.3166 -22.4974 8.19247 -0.631211 71.3922 7.03338 0.598717 17.592 -8.26516 5.88797 175.514 5.83505 90.943 -21.6499 -16.6937 -2.36527 65.4516 -3.34882 -0.206846 25.3614 0.999473 2.54452 -0.654452 7.62165 -90.343 11.6274 -1.46252 -0.531732 -0.0427898 -1.4845 -0.466847 -22.5821 -1.23509 -0.946737 -2.5694 -1.23509 -0.946742 94.5834 -28.4364 -97.9672 44.4403 -0.818865 12.1091 5.85142 -19.4176 -10.5631 -19.3029 0.364676 -11.7979 -83.3923 -46.6066 88.3093 -31.6904 -9.08584 -18.8858 6.90878 20.8933 -10.0463 18.4721 -5.54689 -32.2347 -28.1432 1.17748 -1.27409 -9.49428 0.836018 4.77366 
-25.8723 100.791 64.9074 97.5866 33.1197 86.2655 -172.863 1.26083 89.4879 -19.691 7.46437 -0.62048 71.2102 7.38591 0.63938 19.4582 -7.39633 6.34257 175.192 4.88777 91.0497 -20.197 -17.5219 -2.1965 66.0528 -3.47757 -0.0358696 25.1058 0.955486 3.20491 -0.338097 7.63171 -90.3275 11.6084 -0.825986 -0.567043 -0.0624185 -0.850128 -0.530142 -22.5978 -0.617363 -0.789064 -2.58518 -0.61738 -0.789061 94.6066 -28.1767 -97.9836 44.2311 -1.92275 11.7921 4.93263 -21.6338 -14.086 -21.3731 0.560735 -12.8479 -83.1386 -46.5442 88.7017 -32.4273 -3.33378 -12.3725 3.20999 14.3332 -6.83742 12.9099 -3.03662 -26.3984 -28.838 1.54855 -1.51693 -9.36801 1.18771 4.81837 
-23.8384 100.811 64.5172 95.9989 33.2143 87.0573 -172.61 1.04688 89.9536 -18.729 7.96221 -0.663689 72.0105 8.40097 0.492648 19.1564 -8.35013 7.98225 175.175 4.84795 91.4863 -19.8908 -18.4371 -2.01372 66.75 -3.88357 -1.34354 23.8381 1.52534 3.15217 -0.235066 7.56068 -90.3274 11.7506 -0.621318 -0.587123 0.0797142 -0.646534 -0.559212 -22.455 -0.416141 -0.746705 -2.44235 -0.416141 -0.746705 94.9658 -27.105 -97.5058 43.5376 -2.02155 9.52873 3.28596 -22.7767 -16.5577 -22.278 0.679906 -13.5174 -83.1289 -48.8904 88.9571 -30.7974 2.35279 -5.13959 -0.868602 6.86492 -0.0561278 4.32824 -0.828258 -20.1846 -30.2699 1.53433 0.0889838 -8.72674 1.44747 3.46552 
-22.2935 100.737 64.414 94.5192 32.3212 87.5105 -172.743 1.0696 89.7434 -18.2211 6.62477 -0.589087 72.2315 8.92492 0.63406 20.4039 -7.68758 8.17351 175.167 5.58342 91.528 -20.5886 -19.5607 -2.00028 67.6912 -4.45161 -1.88636 23.0396 1.87627 3.15756 -0.0179996 7.59496 -90.2922 11.6831 -0.172754 -0.564259 0.012051 -0.197403 -0.556116 -22.5221 0.00480373 -0.590094 -2.50946 0.00481254 -0.59009 95.3714 -25.9559 -96.93 42.155 -2.14849 7.4654 1.68458 -22.4919 -19.2402 -24.5027 1.04603 -14.6289 -82.9122 -50.9114 89.4797 -31.469 2.17939 3.66657 -1.18632 6.62857 0.00234426 0.280101 0.0551653 -14.2353 -30.3283 1.5301 1.27247 -8.40472 1.62731 2.85196 
-21.6708 100.39 65.2124 92.0458 32.7852 88.7662 -172.817 5.11059 90.2128 -21.7556 4.26899 -0.605048 74.0335 9.72356 -0.993282 18.6218 -8.9072 8.46424 175.624 8.78605 92.3213 -22.8206 -18.6994 -1.71619 68.5656 -4.92609 -2.44638 22.5719 2.05232 3.27454 0.250728 7.72222 -90.2611 11.4304 0.377091 -0.557884 -0.240612 0.35215 -0.573945 -22.7756 0.527317 -0.41877 -2.76291 0.527304 -0.41877 94.8075 -26.4797 -98.0049 38.3338 -1.5007 6.31743 0.063887 -23.7554 -21.1737 -25.1451 0.932013 -14.0862 -82.832 -51.5076 89.6538 -31.5837 -1.34175 10.9986 0.493286 5.80553 0.000648328 -3.74429 0.415602 -14.1647 -27.713 1.32166 -0.0819128 -7.94179 1.25941 2.78524 
-22.5682 99.5526 66.79 88.0903 35.2481 90.5205 -174.164 15.016 89.468 -31.248 7.35224 -0.140992 73.0079 8.82059 -0.23175 20.3599 -7.9045 8.55643 175.845 15.5603 92.4398 -27.5815 -16.1872 -1.11184 69.7902 -5.34409 -2.78062 22.5063 2.10434 3.18764 0.425764 8.00726 -90.2443 10.861 0.734868 -0.555299 -0.809875 0.709712 -0.587109 -23.3464 0.867781 -0.308759 -3.33372 0.867771 -0.308758 94.067 -25.9825 -99.7416 33.5864 -2.06492 3.57702 1.67062 -22.7599 -18.8002 -25.5396 0.873632 -13.3933 -83.5492 -50.6682 88.5024 -29.6147 -1.54261 10.2289 0.387822 3.38656 0.00187586 -4.89558 0.456201 -15.5009 -21.5608 0.582842 -1.30008 -7.56311 0.467034 1.6348 
-24.4102 98.4328 68.9774 81.7323 36.2142 93.9613 -175.556 25.9168 89.2812 -35.9742 10.8688 -0.0610963 73.7866 8.56866 -1.7119 24.365 -6.86086 11.8065 176.335 25.0972 92.6559 -32.2329 -14.4657 -0.410348 70.1592 -5.65655 -2.82128 22.6164 2.02528 3.30238 0.615565 8.36236 -90.2094 10.1519 1.13114 -0.511126 -1.51869 1.10755 -0.560426 -24.0577 1.23247 -0.147497 -4.04503 1.23244 -0.147503 92.8426 -25.3948 -102.568 27.3697 -2.54829 -1.86591 4.02414 -22.4012 -14.854 -25.8193 0.516523 -11.4153 -85.3474 -49.0975 85.5916 -26.8734 -0.754225 3.42955 0.695064 3.13335 0.00178371 -0.950728 0.0722384 -13.2342 -12.7159 -0.53172 -2.56699 -6.84815 -0.480779 0.703978 
-26.4471 97.126 70.9826 75.3572 35.8397 96.7423 -176.659 35.4505 88.4445 -35.727 10.2253 -0.635295 71.213 6.84112 -1.09314 23.3942 -7.02485 10.7459 176.333 34.7904 92.0312 -36.7931 -14.5444 0.361494 70.5287 -6.00989 -2.98061 22.1631 2.16636 3.52209 0.683185 8.75949 -90.101 9.35687 1.31705 -0.298344 -2.31347 1.30265 -0.356034 -24.854 1.34581 0.111349 -4.84133 1.34581 0.111352 91.3513 -24.7375 -106.045 20.127 -1.91878 -9.42941 5.67297 -26.2756 -11.3405 -24.1027 -0.378933 -7.8273 -87.8417 -47.9481 81.5883 -21.4357 2.10993 -7.74347 -1.32418 3.55339 -0.00130842 2.51252 -0.201775 -13.9851 -4.90772 -0.701775 -1.46574 -6.44358 -0.554987 -0.334995 
